<svg id="visual" viewBox="0 0 900 600" width="900" height="600" xmlns="http://www.w3.org/2000/svg" xmlns:xlink="http://www.w3.org/1999/xlink" version="1.1"><path d="M0 513L25 518.8C50 524.7 100 536.3 150 537.7C200 539 250 530 300 526.2C350 522.3 400 523.7 450 528C500 532.3 550 539.7 600 546.8C650 554 700 561 750 556.2C800 551.3 850 534.7 875 526.3L900 518L900 601L875 601C850 601 800 601 750 601C700 601 650 601 600 601C550 601 500 601 450 601C400 601 350 601 300 601C250 601 200 601 150 601C100 601 50 601 25 601L0 601Z" fill="#f8eeec" stroke-linecap="round" stroke-linejoin="miter"></path></svg>