<svg id="visual" viewBox="0 0 2560 1440" width="2560" height="1440" xmlns="http://www.w3.org/2000/svg" xmlns:xlink="http://www.w3.org/1999/xlink" version="1.1"><path d="M0 1171L85.3 1182.5C170.7 1194 341.3 1217 512 1241C682.7 1265 853.3 1290 1024 1286.7C1194.7 1283.3 1365.3 1251.7 1536 1226C1706.7 1200.3 1877.3 1180.7 2048 1189.8C2218.7 1199 2389.3 1237 2474.7 1256L2560 1275L2560 1441L2474.7 1441C2389.3 1441 2218.7 1441 2048 1441C1877.3 1441 1706.7 1441 1536 1441C1365.3 1441 1194.7 1441 1024 1441C853.3 1441 682.7 1441 512 1441C341.3 1441 170.7 1441 85.3 1441L0 1441Z" fill="#f8eeec" stroke-linecap="round" stroke-linejoin="miter"></path></svg>